<svg width="28" height="28" viewBox="0 0 28 28" fill="none" xmlns="http://www.w3.org/2000/svg">
<circle cx="14" cy="14" r="14" fill="#008EFF"/>
<path d="M9.75777 8.134H15.2488C15.7361 8.134 16.1724 8.20767 16.5578 8.355C16.9544 8.50233 17.2888 8.70633 17.5608 8.967C17.8328 9.22767 18.0368 9.55067 18.1728 9.936C18.3201 10.31 18.3938 10.7237 18.3938 11.177C18.3938 11.6303 18.3314 12.0157 18.2068 12.333C18.0934 12.639 17.9348 12.894 17.7308 13.098C17.5381 13.302 17.3114 13.455 17.0508 13.557C16.8014 13.659 16.5408 13.7157 16.2688 13.727V13.829C16.5294 13.829 16.8071 13.88 17.1018 13.982C17.4078 14.084 17.6854 14.2483 17.9348 14.475C18.1954 14.6903 18.4108 14.9737 18.5808 15.325C18.7508 15.665 18.8358 16.09 18.8358 16.6C18.8358 17.076 18.7564 17.5237 18.5978 17.943C18.4504 18.351 18.2408 18.708 17.9688 19.014C17.6968 19.32 17.3738 19.5637 16.9998 19.745C16.6258 19.915 16.2178 20 15.7758 20H9.75777V8.134ZM12.0018 18.096H15.1298C15.5604 18.096 15.8948 17.9883 16.1328 17.773C16.3708 17.5463 16.4898 17.2233 16.4898 16.804V16.226C16.4898 15.8067 16.3708 15.4837 16.1328 15.257C15.8948 15.0303 15.5604 14.917 15.1298 14.917H12.0018V18.096ZM12.0018 13.081H14.7728C15.1808 13.081 15.4981 12.9733 15.7248 12.758C15.9514 12.5313 16.0648 12.2197 16.0648 11.823V11.296C16.0648 10.8993 15.9514 10.5933 15.7248 10.378C15.4981 10.1513 15.1808 10.038 14.7728 10.038H12.0018V13.081Z" fill="#FEFEFE"/>
</svg>
