<?xml version="1.0" encoding="utf-8"?>
<svg width="22px" height="16px" viewbox="0 0 22 16" version="1.1" xmlns:xlink="http://www.w3.org/1999/xlink" xmlns="http://www.w3.org/2000/svg">
  <defs>
    <filter filterUnits="userSpaceOnUse" color-interpolation-filters="sRGB" id="filter_1">
      <feFlood flood-opacity="0" result="BackgroundImageFix" />
      <feBlend mode="normal" in="SourceGraphic" in2="BackgroundImageFix" result="shape" />
      <feColorMatrix in="SourceAlpha" type="matrix" values="0 0 0 0 0 0 0 0 0 0 0 0 0 0 0 0 0 0 127 0" result="hardAlpha" />
      <feMorphology radius="1" operator="erode" in="SourceAlpha" result="effect0_innerShadow" />
      <feOffset dx="0" dy="0" />
      <feGaussianBlur stdDeviation="0" />
      <feComposite in2="hardAlpha" operator="arithmetic" k2="-1" k3="1" />
      <feColorMatrix type="matrix" values="0 0 0 0 0 0 0 0 0 0 0 0 0 0 0 0 0 0 0.12156863 0" />
      <feBlend mode="normal" in2="shape" result="effect0_innerShadow" />
    </filter>
    <path d="M0 1.999L0 13.001Q0 13.0992 0.00962573 13.1969Q0.0192515 13.2947 0.0384102 13.391Q0.057569 13.4873 0.0860763 13.5813Q0.114584 13.6753 0.152165 13.766Q0.189746 13.8567 0.236039 13.9433Q0.282333 14.0299 0.336892 14.1116Q0.391452 14.1932 0.453752 14.2692Q0.516052 14.3451 0.585494 14.4145Q0.654935 14.4839 0.730848 14.5462Q0.806761 14.6085 0.888415 14.6631Q0.970069 14.7177 1.05668 14.764Q1.14329 14.8103 1.23402 14.8478Q1.32474 14.8854 1.41872 14.9139Q1.5127 14.9424 1.60901 14.9616Q1.70533 14.9807 1.80306 14.9904Q1.9008 15 1.999 15L19.001 15Q19.0992 15 19.1969 14.9904Q19.2947 14.9807 19.391 14.9616Q19.4873 14.9424 19.5813 14.9139Q19.6753 14.8854 19.766 14.8478Q19.8567 14.8103 19.9433 14.764Q20.0299 14.7177 20.1116 14.6631Q20.1932 14.6085 20.2691 14.5462Q20.3451 14.4839 20.4145 14.4145Q20.4839 14.3451 20.5462 14.2692Q20.6085 14.1932 20.6631 14.1116Q20.7177 14.0299 20.764 13.9433Q20.8103 13.8567 20.8478 13.766Q20.8854 13.6753 20.9139 13.5813Q20.9424 13.4873 20.9616 13.391Q20.9807 13.2947 20.9904 13.1969Q21 13.0992 21 13.001L21 1.999Q21 1.9008 20.9904 1.80306Q20.9807 1.70533 20.9616 1.60901Q20.9424 1.5127 20.9139 1.41872Q20.8854 1.32474 20.8478 1.23402Q20.8103 1.14329 20.764 1.05668Q20.7177 0.970069 20.6631 0.888415Q20.6085 0.806761 20.5462 0.730848Q20.4839 0.654935 20.4145 0.585494Q20.3451 0.516052 20.2691 0.453752Q20.1932 0.391452 20.1116 0.336892Q20.0299 0.282333 19.9433 0.236039Q19.8567 0.189746 19.766 0.152165Q19.6753 0.114584 19.5813 0.0860763Q19.4873 0.057569 19.391 0.0384102Q19.2947 0.0192515 19.1969 0.00962573Q19.0992 0 19.001 0L1.999 0Q1.9008 0 1.80306 0.00962573Q1.70533 0.0192515 1.60901 0.0384102Q1.5127 0.057569 1.41872 0.0860763Q1.32474 0.114584 1.23402 0.152165Q1.14329 0.189746 1.05668 0.236039Q0.970069 0.282333 0.888415 0.336892Q0.806761 0.391452 0.730848 0.453752Q0.654935 0.516052 0.585494 0.585494Q0.516052 0.654935 0.453752 0.730848Q0.391452 0.806761 0.336892 0.888415Q0.282333 0.970069 0.236039 1.05668Q0.189746 1.14329 0.152165 1.23402Q0.114584 1.32474 0.0860763 1.41872Q0.057569 1.5127 0.0384102 1.60901Q0.0192515 1.70533 0.00962573 1.80306Q0 1.9008 0 1.999L0 1.999Z" id="path_1" />
    <path d="M0 0.999L0 13.001Q0 13.0994 0.0191955 13.1959Q0.038391 13.2924 0.0760443 13.3833Q0.113698 13.4742 0.168362 13.556Q0.223026 13.6378 0.2926 13.7074Q0.362175 13.777 0.443985 13.8316Q0.525796 13.8863 0.616699 13.924Q0.707602 13.9616 0.804105 13.9808Q0.900607 14 0.999 14L19.001 14Q19.0994 14 19.1959 13.9808Q19.2924 13.9616 19.3833 13.924Q19.4742 13.8863 19.556 13.8316Q19.6378 13.777 19.7074 13.7074Q19.777 13.6378 19.8316 13.556Q19.8863 13.4742 19.924 13.3833Q19.9616 13.2924 19.9808 13.1959Q20 13.0994 20 13.001L20 0.999Q20 0.900607 19.9808 0.804105Q19.9616 0.707602 19.924 0.616699Q19.8863 0.525796 19.8316 0.443985Q19.777 0.362175 19.7074 0.2926Q19.6378 0.223026 19.556 0.168362Q19.4742 0.113698 19.3833 0.0760443Q19.2924 0.038391 19.1959 0.0191955Q19.0994 0 19.001 0L0.999 0Q0.900607 0 0.804105 0.0191955Q0.707602 0.038391 0.616699 0.0760443Q0.525796 0.113698 0.443985 0.168362Q0.362175 0.223026 0.2926 0.2926Q0.223026 0.362175 0.168362 0.443985Q0.113698 0.525796 0.0760443 0.616699Q0.038391 0.707602 0.0191955 0.804105Q0 0.900607 0 0.999L0 0.999Z" transform="translate(0.5 0.5)" id="path_2" />
    <clipPath id="mask_1">
      <use xlink:href="#path_1" />
    </clipPath>
    <clipPath id="mask_2">
      <use xlink:href="#path_2" />
    </clipPath>
  </defs>
  <g id="KZ" transform="translate(0.5 0.5)">
    <g id="background">
      <use stroke="none" fill="#29B3CB" xlink:href="#path_1" fill-rule="evenodd" filter="url(#filter_1)" />
    </g>
    <path d="M0 0.999L0 13.001Q0 13.0994 0.0191955 13.1959Q0.038391 13.2924 0.0760443 13.3833Q0.113698 13.4742 0.168362 13.556Q0.223026 13.6378 0.2926 13.7074Q0.362175 13.777 0.443985 13.8316Q0.525796 13.8863 0.616699 13.924Q0.707602 13.9616 0.804105 13.9808Q0.900607 14 0.999 14L19.001 14Q19.0994 14 19.1959 13.9808Q19.2924 13.9616 19.3833 13.924Q19.4742 13.8863 19.556 13.8316Q19.6378 13.777 19.7074 13.7074Q19.777 13.6378 19.8316 13.556Q19.8863 13.4742 19.924 13.3833Q19.9616 13.2924 19.9808 13.1959Q20 13.0994 20 13.001L20 0.999Q20 0.900607 19.9808 0.804105Q19.9616 0.707602 19.924 0.616699Q19.8863 0.525796 19.8316 0.443985Q19.777 0.362175 19.7074 0.2926Q19.6378 0.223026 19.556 0.168362Q19.4742 0.113698 19.3833 0.0760443Q19.2924 0.038391 19.1959 0.0191955Q19.0994 0 19.001 0L0.999 0Q0.900607 0 0.804105 0.0191955Q0.707602 0.038391 0.616699 0.0760443Q0.525796 0.113698 0.443985 0.168362Q0.362175 0.223026 0.2926 0.2926Q0.223026 0.362175 0.168362 0.443985Q0.113698 0.525796 0.0760443 0.616699Q0.038391 0.707602 0.0191955 0.804105Q0 0.900607 0 0.999L0 0.999Z" transform="translate(0.5 0.5)" id="overlay" fill="none" fill-rule="evenodd" stroke="#2F343A" stroke-opacity="0.15686275" stroke-width="1" />
    <g clip-path="url(#mask_1)">
      <path d="M3.5 7C5.433 7 7 5.433 7 3.5C7 1.567 5.433 0 3.5 0C1.567 0 0 1.567 0 3.5C0 5.433 1.567 7 3.5 7Z" transform="translate(7 4)" id="circle" fill="#FDD92F" fill-rule="evenodd" stroke="none" />
      <path d="M0 1L0 0L2 0L2 1L0 1ZM0 3L0 2L2 2L2 3L0 3ZM0 5L0 4L2 4L2 5L0 5ZM0 7L0 6L2 6L2 7L0 7Z" transform="translate(2 4)" id="bars" fill="#FDD92F" fill-rule="evenodd" stroke="none" />
    </g>
  </g>
</svg>